<?xml version="1.0" standalone="no"?>
<!DOCTYPE svg PUBLIC "-//W3C//DTD SVG 20010904//EN"
 "http://www.w3.org/TR/2001/REC-SVG-20010904/DTD/svg10.dtd">
<svg version="1.0" xmlns="http://www.w3.org/2000/svg"
 width="898.000000pt" height="898.000000pt" viewBox="0 0 898.000000 898.000000"
 preserveAspectRatio="xMidYMid meet">
<metadata>
Created by potrace 1.14, written by Peter Selinger 2001-2017
</metadata>
<g transform="translate(0.000000,898.000000) scale(0.100000,-0.100000)"
fill="#000000" stroke="none">
<path d="M4238 8975 c-1 -1 -43 -6 -93 -9 -49 -3 -124 -10 -165 -16 -41 -5
-95 -12 -120 -15 -153 -18 -450 -83 -642 -141 -421 -125 -803 -303 -1167 -541
-940 -615 -1607 -1538 -1895 -2623 -26 -98 -75 -322 -81 -375 -3 -16 -9 -59
-14 -95 -18 -116 -21 -134 -27 -205 -3 -38 -8 -81 -11 -95 -9 -44 -11 -591 -2
-690 14 -164 30 -303 39 -355 6 -27 12 -68 16 -90 8 -60 32 -177 60 -295 121
-513 367 -1058 683 -1511 47 -67 89 -126 95 -133 6 -6 24 -29 41 -51 173 -233
500 -564 739 -750 21 -16 44 -35 50 -40 70 -64 507 -355 532 -355 3 0 18 -8
32 -19 82 -58 484 -242 667 -305 44 -16 87 -31 95 -34 8 -3 18 -6 23 -7 4 -2
9 -4 12 -5 3 -1 8 -3 13 -4 4 -1 41 -13 82 -25 145 -45 427 -112 530 -126 25
-3 52 -8 60 -10 8 -2 36 -7 62 -10 26 -3 62 -7 82 -10 38 -7 74 -10 216 -22
182 -15 636 -9 815 11 121 14 169 21 317 47 217 38 443 96 643 164 88 31 165
57 170 59 6 2 27 10 47 20 21 9 40 16 42 16 3 0 31 12 63 26 32 14 74 32 93
41 63 27 293 144 375 191 194 110 506 330 685 482 619 527 1090 1225 1348
1995 34 102 46 139 68 220 59 212 108 457 129 645 3 30 8 69 10 85 14 105 20
251 20 470 0 389 -21 584 -105 997 -11 57 -37 157 -55 218 -8 25 -28 92 -45
150 -18 58 -38 119 -45 135 -7 17 -29 74 -49 128 -55 148 -176 409 -243 527
-11 19 -40 69 -63 110 -24 41 -64 107 -89 145 -25 39 -50 77 -56 86 -48 77
-201 281 -291 389 -211 253 -449 481 -714 686 -88 68 -299 214 -310 214 -4 0
-10 4 -12 8 -3 8 -19 18 -168 105 -430 250 -997 456 -1470 532 -19 3 -42 7
-50 10 -8 2 -40 6 -71 10 -31 3 -65 7 -75 9 -11 2 -55 7 -99 11 -44 4 -91 9
-105 12 -28 5 -616 13 -622 8z"/>
</g>
</svg>
